M48
INCH
T01C0.0118
T02C0.0354
T03C0.0433
T04C0.063
T05C0.1181
%
T01
X+024375Y+005687
X+024375Y+007938
X+017938Y+004525
X+016812Y+003437
X+015812Y+003437
X+014688Y+003437
X+014875Y+004500
X+015250Y+010750
X+015250Y+014500
X+010188Y+009875
X+009125Y+009375
X+007750Y+009875
X+008312Y+011752
X+008312Y+014062
X+004437Y+009375
X+002189Y+010375
X+001696Y+011375
X+002189Y+005936
X+001696Y+005491
T02
X+011875Y+004000
X+013375Y+005500
X+013375Y+006500
X+013375Y+008000
X+013375Y+009000
X+013375Y+010750
X+013375Y+011750
X+013375Y+012750
X+010375Y+012750
X+010375Y+011750
X+010375Y+010750
X+010375Y+009000
X+010375Y+008000
X+010375Y+006500
X+010375Y+005500
X+011875Y+000875
X+019314Y+007250
X+019314Y+008500
T03
X+023125Y+015875
X+024125Y+015875
X+025125Y+015875
X+024127Y+018063
X+000500Y+011375
X+000500Y+010375
X+000500Y+009375
X+000500Y+008375
X+000500Y+007375
T04
X+032062Y+002937
X+032062Y+004906
X+032062Y+007375
X+032062Y+009344
X+032063Y+011875
X+032063Y+013844
X+032063Y+015812
X+005750Y+016750
X+003781Y+016750
X+003750Y+002250
X+005719Y+002250
X+007687Y+002250
T05
X+019188Y+017375
X+029062Y+017375
X+033250Y+018000
X+033250Y+001000
X+001000Y+001000
X+001000Y+018000
T00
M30
