G04 DipTrace 2.4.0.2*
%INTop.gbr*%
%MOIN*%
%ADD12C,0.003*%
%ADD14C,0.0315*%
%ADD15C,0.0236*%
%ADD16C,0.0787*%
%ADD17C,0.0748*%
%ADD18C,0.0118*%
%ADD19R,0.1614X0.0925*%
%ADD20R,0.0512X0.0591*%
%ADD21R,0.1339X0.0748*%
%ADD22R,0.0748X0.0748*%
%ADD23C,0.0748*%
%ADD24R,0.0827X0.0551*%
%ADD25R,0.0709X0.0551*%
%ADD26C,0.1575*%
%ADD27R,0.0669X0.0669*%
%ADD28C,0.0669*%
%ADD29C,0.0591*%
%ADD31R,0.0256X0.0413*%
%ADD32R,0.063X0.1063*%
%ADD33R,0.0394X0.0433*%
%ADD34R,0.0433X0.0394*%
%ADD35R,0.063X0.0709*%
%ADD36R,0.0709X0.126*%
%ADD37R,0.0709X0.063*%
%ADD38R,0.0787X0.0236*%
%ADD39R,0.0433X0.0236*%
%ADD40R,0.0591X0.0591*%
%ADD41C,0.0591*%
%ADD42C,0.0197*%
%ADD87C,0.0093*%
%ADD88C,0.0077*%
%ADD89C,0.0046*%
%FSLAX44Y44*%
G04*
G70*
G90*
G75*
G01*
%LNTop*%
%LPD*%
X23687Y10000D2*
D14*
Y8545D1*
X27250Y2812D2*
X25688D1*
X24375Y4125D1*
Y5687D1*
Y7938D2*
X23875D1*
X23687Y8125D1*
Y8545D1*
X27065Y4187D2*
D15*
Y3749D1*
X27190Y3624D1*
Y2873D1*
X27250Y2812D1*
X25188Y8545D2*
D14*
Y10000D1*
Y8545D2*
X26143D1*
X26312Y8375D1*
Y7688D1*
X26625Y7375D1*
X27188D1*
X27065Y8750D2*
D15*
Y8187D1*
X27188Y8064D1*
Y7375D1*
X20562Y11839D2*
D14*
X21036D1*
X21188Y11688D1*
Y11500D1*
X21313Y11375D1*
X21625D1*
X22500D1*
X22875Y11750D1*
X23670D1*
X23687Y11732D1*
X25188D1*
X13375Y9000D2*
X15938D1*
X16500Y9563D1*
X18938D1*
X19375Y10000D1*
Y11500D1*
X19687Y11813D1*
X20536D1*
X20562Y11839D1*
X28352Y2812D2*
Y2148D1*
X28750Y1750D1*
X31000D1*
X32062Y2812D1*
Y2937D1*
X18706Y14500D2*
D15*
X20564D1*
X21001Y14938D1*
Y17563D1*
X21502Y18063D1*
X24127D1*
X28352Y2812D2*
Y3537D1*
X28440Y3624D1*
Y4187D1*
X28290Y7375D2*
D14*
X32062D1*
X28290D2*
D15*
Y8100D1*
X28377Y8187D1*
Y8750D1*
X6625Y11750D2*
D18*
Y11063D1*
X6813Y10875D1*
X7625D1*
X10375Y9000D2*
Y9687D1*
X10188Y9875D1*
X7750D2*
X7625Y10000D1*
Y10875D1*
X8294D2*
Y11734D1*
X8311Y11750D1*
X500Y8375D2*
X5000D1*
X6687D1*
Y6625D1*
X6813Y6500D1*
X7625D1*
X6687Y8375D2*
X8187D1*
X8312Y8500D1*
Y10857D1*
X8294Y10875D1*
X5500Y12498D2*
X5061D1*
X5000Y12437D1*
Y8375D1*
X5750Y16750D2*
Y15125D1*
X6813Y14062D1*
X8312D1*
Y11752D2*
X8311Y11750D1*
X500Y10375D2*
X2189D1*
X2687D1*
X2812Y10500D1*
Y12482D1*
X2831Y12500D1*
X2189Y5936D2*
X3250Y4875D1*
X4938D1*
X5750Y4063D1*
Y2281D1*
X5719Y2250D1*
X3500Y12500D2*
X4435D1*
X4437Y12498D1*
X5500Y12124D2*
X5937D1*
X6250Y12438D1*
X6607D1*
X6625Y12419D1*
X500Y9375D2*
X4437D1*
Y11750D1*
X9125Y11706D2*
Y9375D1*
Y8250D1*
X9375Y8000D1*
X10375D1*
Y5500D2*
X10750D1*
X11187Y5937D1*
Y7563D1*
X10750Y8000D1*
X10375D1*
X25125Y15875D2*
D14*
Y14750D1*
X24750Y14375D1*
Y13812D1*
X13375Y12750D2*
X24562D1*
X24750Y12938D1*
Y13812D1*
X25125Y15875D2*
D17*
X25750D1*
D16*
X26750D1*
X27688Y14938D1*
X30250D1*
X30938Y15625D1*
X31875D1*
X32063Y15812D1*
X23125Y15875D2*
D14*
Y15000D1*
X23687Y14438D1*
Y13773D1*
X23648Y13812D1*
X13375Y10750D2*
X15250D1*
Y14500D2*
X16501D1*
X9125Y12375D2*
D18*
Y12562D1*
X9313Y12750D1*
X10375D1*
X7937Y12656D2*
Y13187D1*
X8125Y13375D1*
X10812D1*
X11062Y13125D1*
Y11875D1*
X10938Y11750D1*
X10375D1*
X500Y11375D2*
X1696D1*
X2125D1*
X2313Y11562D1*
Y13000D1*
X2562Y13250D1*
X7000D1*
X7188Y13063D1*
Y11812D1*
X7250Y11750D1*
X7563D1*
X1696Y5491D2*
X2937Y4250D1*
X3438D1*
X3750Y3938D1*
Y2250D1*
X14125Y4813D2*
X14563D1*
X14938Y4438D1*
Y2625D1*
X15125Y2437D1*
X15812D1*
X17250Y6312D2*
X17938D1*
X18420D1*
X18438Y6294D1*
X17938Y3937D2*
Y4525D1*
Y6312D1*
X14875Y4500D2*
X14938Y4438D1*
X17250Y1250D2*
X17688D1*
X17938Y1500D1*
Y2437D1*
Y2937D2*
X19000D1*
X19125Y2812D1*
X19500D1*
X19563Y2875D1*
X20603D1*
X20625Y2898D1*
X13500Y3250D2*
X14500D1*
X14688Y3437D1*
X15812D2*
D3*
X16812D2*
X16937Y3312D1*
Y3063D1*
X17063Y2937D1*
X17938D1*
X11875Y4000D2*
D15*
X13375D1*
X13500Y3875D1*
Y3250D1*
X17938Y3437D2*
D18*
X18937D1*
X19063Y3562D1*
X19545D1*
X19563Y3544D1*
X14125Y5482D2*
X13393D1*
X13375Y5500D1*
X8294Y5375D2*
Y6500D1*
X10375D1*
X500Y7375D2*
X6188D1*
X6375Y7188D1*
Y5750D1*
X6750Y5375D1*
X7625D1*
Y4312D1*
X7687Y4250D1*
Y2250D1*
X16876Y5407D2*
Y6939D1*
X17251Y7314D1*
Y7687D1*
X28440Y5289D2*
D15*
X27065D1*
X28377Y9852D2*
X27065D1*
X16502Y1250D2*
D18*
X15750D1*
X15250Y1750D1*
X13375D1*
X13500Y1625D1*
Y1715D1*
X15812Y3937D2*
X16375D1*
X16500Y3812D1*
Y1252D1*
X16502Y1250D1*
Y6312D2*
X16125D1*
X15812Y6000D1*
Y3937D1*
X16502Y6312D2*
Y7686D1*
X16503Y7687D1*
Y8314D1*
X16689Y8500D1*
X19314D1*
Y9125D1*
X19376Y9187D1*
X20898D1*
X20937Y9148D1*
X13375Y8000D2*
X14375D1*
X14688Y7687D1*
X16503D1*
X20562Y10500D2*
D14*
Y10188D1*
X20937Y9813D1*
Y9148D1*
X20562Y10500D2*
X21062D1*
X21250Y10688D1*
X21607D1*
X21625Y10706D1*
X11875Y875D2*
D15*
X13375D1*
X13500Y1000D1*
Y1715D1*
X20937Y9148D2*
X20876D1*
Y9187D1*
X19439D1*
X19314Y9062D1*
Y8500D1*
X13375Y6500D2*
D18*
X14875D1*
X15188Y6187D1*
Y3000D1*
X15250Y2937D1*
X15812D1*
X18438Y5625D2*
D14*
X20438D1*
X20625Y5437D1*
Y4000D1*
X23500D1*
X23687Y4188D1*
Y6812D1*
X25188D1*
X20937Y6687D2*
X22875D1*
X23000Y6812D1*
X23687D1*
X20937Y6687D2*
D15*
X19876D1*
X19314Y7250D1*
D42*
X24375Y5687D3*
Y7938D3*
X10188Y9875D3*
X7750D3*
X8312Y14062D3*
Y11752D3*
X2189Y5936D3*
Y10375D3*
X9125Y9375D3*
X4437D3*
D3*
X15250Y10750D3*
Y14500D3*
X1696Y5491D3*
Y11375D3*
X14875Y4500D3*
X17938Y4525D3*
X14688Y3437D3*
X15812D3*
D3*
X16812D3*
D19*
X20937Y6687D3*
Y9148D3*
D20*
X17250Y1250D3*
X16502D3*
D21*
X13500Y3250D3*
Y1715D3*
D20*
X17251Y7687D3*
X16503D3*
D22*
X23125Y15875D3*
D23*
X24125D3*
X25125D3*
D24*
X23687Y6812D3*
Y8545D3*
X25188Y6812D3*
Y8545D3*
X23687Y10000D3*
Y11732D3*
X25188Y10000D3*
Y11732D3*
D25*
X20562Y10500D3*
Y11839D3*
D26*
X32062Y2937D3*
Y4906D3*
X32063Y11875D3*
Y13844D3*
Y15812D3*
X32062Y7375D3*
Y9344D3*
X3750Y2250D3*
X5719D3*
X7687D3*
D27*
X500Y11375D3*
D28*
Y10375D3*
Y9375D3*
Y8375D3*
Y7375D3*
D26*
X5750Y16750D3*
X3781D3*
D17*
X24127Y18063D3*
D29*
X11875Y4000D3*
Y875D3*
X19314Y8500D3*
Y7250D3*
D31*
X7563Y11750D3*
X8311D3*
X7937Y12656D3*
D32*
X27188Y7375D3*
X28290D3*
X27250Y2812D3*
X28352D3*
D33*
X21625Y11375D3*
Y10706D3*
D34*
X7625Y10875D3*
X8294D3*
D33*
X6625Y11750D3*
Y12419D3*
D34*
X3500Y12500D3*
X2831D3*
D35*
X24750Y13812D3*
X23648D3*
D36*
X16501Y14500D3*
X18706D3*
D33*
X9125Y12375D3*
Y11706D3*
X18438Y5625D3*
Y6294D3*
X19563Y2875D3*
Y3544D3*
D37*
X20625Y4000D3*
Y2898D3*
D33*
X14125Y4813D3*
Y5482D3*
D34*
X7625Y6500D3*
X8294D3*
X7625Y5375D3*
X8294D3*
D37*
X28440Y4187D3*
Y5289D3*
X27065Y4187D3*
Y5289D3*
X28377Y8750D3*
Y9852D3*
X27065Y8750D3*
Y9852D3*
D38*
X15812Y3937D3*
Y3437D3*
Y2937D3*
Y2437D3*
X17938D3*
Y2937D3*
Y3437D3*
Y3937D3*
D39*
X5500Y11750D3*
Y12124D3*
Y12498D3*
X4437D3*
Y11750D3*
D31*
X17250Y6312D3*
X16502D3*
X16876Y5407D3*
D40*
X10375Y12750D3*
D41*
Y11750D3*
Y10750D3*
X13375D3*
Y11750D3*
Y12750D3*
D40*
Y8000D3*
D29*
Y9000D3*
X10375D3*
Y8000D3*
D40*
X13375Y5500D3*
D29*
Y6500D3*
X10375D3*
Y5500D3*
X7477Y16903D2*
D87*
X7448Y16960D1*
X7391Y17018D1*
X7333Y17046D1*
X7219D1*
X7161Y17018D1*
X7104Y16960D1*
X7075Y16903D1*
X7046Y16817D1*
Y16673D1*
X7075Y16588D1*
X7104Y16530D1*
X7161Y16473D1*
X7219Y16444D1*
X7333D1*
X7391Y16473D1*
X7448Y16530D1*
X7477Y16588D1*
Y16673D1*
X7333D1*
X8064Y17046D2*
Y16444D1*
X7662Y17046D1*
Y16444D1*
X8249Y17046D2*
Y16444D1*
X8450D1*
X8536Y16473D1*
X8594Y16530D1*
X8623Y16588D1*
X8651Y16673D1*
Y16817D1*
X8623Y16903D1*
X8594Y16960D1*
X8536Y17018D1*
X8450Y17046D1*
X8249D1*
X1977Y17080D2*
Y16564D1*
X1719Y16822D2*
X2236D1*
X1259Y14907D2*
D88*
X1522D1*
X1379Y14716D1*
X1451D1*
X1498Y14692D1*
X1522Y14668D1*
X1546Y14596D1*
Y14549D1*
X1522Y14477D1*
X1474Y14429D1*
X1403Y14405D1*
X1331D1*
X1259Y14429D1*
X1236Y14453D1*
X1211Y14501D1*
X1724Y14453D2*
X1701Y14429D1*
X1724Y14405D1*
X1749Y14429D1*
X1724Y14453D1*
X1951Y14907D2*
X2214D1*
X2071Y14716D1*
X2143D1*
X2190Y14692D1*
X2214Y14668D1*
X2238Y14596D1*
Y14549D1*
X2214Y14477D1*
X2166Y14429D1*
X2094Y14405D1*
X2023D1*
X1951Y14429D1*
X1928Y14453D1*
X1903Y14501D1*
X2393Y14656D2*
X2669D1*
X3110Y14907D2*
X2871D1*
X2848Y14692D1*
X2871Y14716D1*
X2943Y14740D1*
X3015D1*
X3086Y14716D1*
X3134Y14668D1*
X3158Y14596D1*
Y14549D1*
X3134Y14477D1*
X3086Y14429D1*
X3015Y14405D1*
X2943D1*
X2871Y14429D1*
X2848Y14453D1*
X2823Y14501D1*
X8023Y3898D2*
D89*
Y3597D1*
X8224Y3898D2*
Y3597D1*
X8023Y3898D2*
X8224D1*
X8317D2*
Y3597D1*
X8518Y3898D2*
Y3597D1*
X8317Y3755D2*
X8518D1*
X8610Y3769D2*
X8629Y3726D1*
X8647Y3711D1*
X8684Y3697D1*
X8739D1*
X8775Y3711D1*
X8793Y3726D1*
X8811Y3769D1*
Y3898D2*
Y3597D1*
X8610Y3898D2*
Y3769D1*
X9296Y3977D2*
X9267Y3948D1*
X9239Y3905D1*
X9210Y3848D1*
X9196Y3776D1*
Y3719D1*
X9210Y3647D1*
X9239Y3590D1*
X9267Y3546D1*
X9296Y3518D1*
X9389Y3898D2*
Y3597D1*
X9590Y3898D2*
Y3597D1*
X9389Y3755D2*
X9590D1*
X9682Y3798D2*
X9840D1*
X9682Y3597D1*
X9840D1*
X9933Y3977D2*
X9962Y3948D1*
X9990Y3905D1*
X10019Y3848D1*
X10033Y3776D1*
Y3719D1*
X10019Y3647D1*
X9990Y3590D1*
X9962Y3546D1*
X9933Y3518D1*
X6109Y3898D2*
X6066Y3884D1*
X6037Y3841D1*
X6023Y3769D1*
Y3726D1*
X6037Y3654D1*
X6066Y3611D1*
X6109Y3597D1*
X6138D1*
X6181Y3611D1*
X6210Y3654D1*
X6224Y3726D1*
Y3769D1*
X6210Y3841D1*
X6181Y3884D1*
X6138Y3898D1*
X6109D1*
X6210Y3841D2*
X6037Y3654D1*
X6709Y3977D2*
X6680Y3948D1*
X6651Y3905D1*
X6623Y3848D1*
X6608Y3776D1*
Y3719D1*
X6623Y3647D1*
X6651Y3590D1*
X6680Y3546D1*
X6709Y3518D1*
X6801Y3898D2*
Y3597D1*
X7002Y3898D2*
Y3597D1*
X6801Y3755D2*
X7002D1*
X7095Y3798D2*
X7253D1*
X7095Y3597D1*
X7253D1*
X7346Y3977D2*
X7374Y3948D1*
X7403Y3905D1*
X7432Y3848D1*
X7446Y3776D1*
Y3719D1*
X7432Y3647D1*
X7403Y3590D1*
X7374Y3546D1*
X7346Y3518D1*
X4023Y3899D2*
X4107Y3667D1*
X4124Y3698D2*
X4095Y3641D1*
X4066Y3612D1*
X4038Y3597D1*
X4023D1*
X4210Y3899D2*
X4124Y3698D1*
X4302Y3898D2*
Y3597D1*
X4503Y3898D2*
Y3597D1*
X4302Y3898D2*
X4503D1*
X4596Y3740D2*
X4725D1*
X4768Y3755D1*
X4783Y3769D1*
X4797Y3798D1*
Y3841D1*
X4783Y3869D1*
X4768Y3884D1*
X4725Y3898D1*
X4596D1*
Y3597D1*
X523Y12841D2*
X552Y12855D1*
X595Y12898D1*
Y12597D1*
X695Y6148D2*
X552D1*
X538Y6019D1*
X552Y6033D1*
X595Y6048D1*
X638D1*
X681Y6033D1*
X710Y6005D1*
X724Y5962D1*
Y5933D1*
X710Y5890D1*
X681Y5861D1*
X638Y5847D1*
X595D1*
X552Y5861D1*
X538Y5876D1*
X523Y5904D1*
X9862Y14615D2*
X9957D1*
X9999Y14630D1*
X10014Y14644D1*
X10028Y14673D1*
Y14716D1*
X10014Y14744D1*
X9999Y14759D1*
X9957Y14773D1*
X9912D1*
X9862D2*
Y14472D1*
X9912Y14773D2*
X9862Y14761D1*
Y14615D2*
X9768D1*
X9725Y14630D1*
X9710Y14644D1*
X9696Y14673D1*
Y14716D1*
X9710Y14744D1*
X9725Y14759D1*
X9768Y14773D1*
X9812D1*
X9862Y14761D1*
X10293Y14673D2*
Y14472D1*
Y14630D2*
X10264Y14659D1*
X10236Y14673D1*
X10193D1*
X10164Y14659D1*
X10135Y14630D1*
X10121Y14587D1*
Y14558D1*
X10135Y14515D1*
X10164Y14486D1*
X10193Y14472D1*
X10236D1*
X10264Y14486D1*
X10293Y14515D1*
X10386Y14644D2*
X10407Y14663D1*
X10439Y14673D1*
X10482D1*
X10515Y14663D1*
X10536Y14644D1*
Y14625D1*
X10525Y14606D1*
X10515Y14596D1*
X10493Y14587D1*
X10492D2*
X10439Y14578D1*
X10493Y14568D2*
X10515Y14558D1*
X10526Y14548D1*
X10536Y14529D1*
Y14501D1*
X10515Y14481D1*
X10482Y14472D1*
X10440D1*
X10407Y14481D1*
X10386Y14501D1*
X10439Y14578D2*
X10493Y14568D1*
X10693Y14673D2*
X10672Y14663D1*
X10650Y14644D1*
X10639Y14625D1*
X10629Y14596D1*
Y14548D1*
X10639Y14520D1*
X10650Y14501D1*
X10672Y14481D1*
X10693Y14472D1*
X10736D1*
X10758Y14481D1*
X10779Y14501D1*
X10790Y14520D1*
X10801Y14548D1*
Y14596D1*
X10790Y14625D1*
X10779Y14644D1*
X10758Y14663D1*
X10736Y14673D1*
X10693D1*
X10893D2*
Y14472D1*
X10990D1*
X11023Y14481D1*
X11033Y14491D1*
X11044Y14510D1*
Y14539D1*
X11033Y14558D1*
X11023Y14568D1*
X10990Y14577D1*
X11023Y14587D1*
X11033Y14596D1*
X11044Y14615D1*
Y14635D1*
X11033Y14654D1*
X11023Y14663D1*
X10990Y14673D1*
X10893D1*
Y14577D2*
X10990D1*
X11136D2*
X11233D1*
X11265Y14568D1*
X11276Y14558D1*
X11287Y14539D1*
Y14510D1*
X11276Y14491D1*
X11265Y14481D1*
X11233Y14472D1*
X11136D1*
Y14673D1*
X11342Y14472D2*
Y14673D1*
X11532Y14694D2*
X11487D1*
X11435Y14673D2*
Y14472D1*
X11586Y14673D2*
Y14472D1*
Y14673D2*
X11435Y14472D1*
X11992Y14673D2*
Y14472D1*
X12098Y14673D2*
Y14472D1*
X11992Y14673D2*
X12098D1*
X11970Y14472D2*
X12120D1*
X11970D2*
Y14452D1*
X12120Y14472D2*
Y14452D1*
X12213Y14587D2*
X12385D1*
Y14615D1*
X12371Y14644D1*
X12357Y14659D1*
X12328Y14673D1*
X12285D1*
X12256Y14659D1*
X12227Y14630D1*
X12213Y14587D1*
Y14558D1*
X12227Y14515D1*
X12256Y14486D1*
X12285Y14472D1*
X12328D1*
X12357Y14486D1*
X12385Y14515D1*
X12553Y14673D2*
Y14472D1*
X12478Y14673D2*
X12628D1*
X12721Y14587D2*
X12893D1*
Y14615D1*
X12879Y14644D1*
X12865Y14659D1*
X12836Y14673D1*
X12793D1*
X12764Y14659D1*
X12735Y14630D1*
X12721Y14587D1*
Y14558D1*
X12735Y14515D1*
X12764Y14486D1*
X12793Y14472D1*
X12836D1*
X12865Y14486D1*
X12893Y14515D1*
X12986Y14673D2*
Y14472D1*
X13136Y14673D2*
X12986Y14539D1*
X13039Y14587D2*
X13136Y14472D1*
X13304Y14673D2*
Y14472D1*
X13229Y14673D2*
X13379D1*
X13537D2*
X13515Y14663D1*
X13494Y14644D1*
X13483Y14625D1*
X13472Y14596D1*
Y14548D1*
X13483Y14520D1*
X13494Y14501D1*
X13515Y14481D1*
X13537Y14472D1*
X13579D1*
X13601Y14481D1*
X13623Y14501D1*
X13633Y14520D1*
X13644Y14548D1*
Y14596D1*
X13633Y14625D1*
X13623Y14644D1*
X13601Y14663D1*
X13579Y14673D1*
X13537D1*
X13736D2*
Y14371D1*
Y14630D2*
X13765Y14658D1*
X13794Y14673D1*
X13837D1*
X13865Y14658D1*
X13894Y14630D1*
X13909Y14587D1*
Y14558D1*
X13894Y14515D1*
X13865Y14486D1*
X13837Y14472D1*
X13794D1*
X13765Y14486D1*
X13736Y14515D1*
X29539Y5080D2*
D88*
Y4578D1*
X29825D1*
X29874Y3205D2*
Y2703D1*
X29539Y3205D1*
Y2703D1*
X29497Y7962D2*
D89*
X29799D1*
X29497Y8163D2*
X29799D1*
X29641Y7962D2*
Y8163D1*
X29799Y8485D2*
X29497Y8370D1*
X29799Y8255D1*
X29698Y8299D2*
Y8442D1*
X29497Y8765D2*
Y8578D1*
X29799D1*
X29655Y8857D2*
Y8987D1*
X29641Y9029D1*
X29626Y9044D1*
X29598Y9058D1*
X29554D1*
X29526Y9044D1*
X29511Y9029D1*
X29497Y8987D1*
Y8857D1*
X29799D1*
X29496Y9151D2*
X29728Y9234D1*
X29697Y9251D2*
X29754Y9223D1*
X29783Y9194D1*
X29799Y9165D1*
Y9151D1*
X29496Y9338D2*
X29697Y9251D1*
X29540Y9430D2*
X29511Y9459D1*
X29497Y9502D1*
Y9559D1*
X29511Y9602D1*
X29540Y9631D1*
X29569D1*
X29598Y9617D1*
X29612Y9602D1*
X29626Y9574D1*
Y9573D2*
X29639Y9502D1*
X29655Y9574D2*
X29669Y9603D1*
X29684Y9617D1*
X29712Y9631D1*
X29755D1*
X29784Y9603D1*
X29799Y9559D1*
Y9502D1*
X29784Y9459D1*
X29755Y9430D1*
X29639Y9502D2*
X29655Y9574D1*
X29497Y9724D2*
X29799D1*
X29497Y9925D2*
X29698Y9724D1*
X29626Y9795D2*
X29799Y9925D1*
Y10247D2*
X29497Y10132D1*
X29799Y10017D1*
X29698Y10060D2*
Y10204D1*
X25922Y14023D2*
X25893Y14009D1*
X25865Y13980D1*
X25850Y13952D1*
X25836Y13909D1*
Y13837D1*
X25850Y13794D1*
X25865Y13765D1*
X25893Y13736D1*
X25922Y13722D1*
X25979D1*
X26008Y13736D1*
X26037Y13765D1*
X26051Y13794D1*
X26065Y13837D1*
Y13909D1*
X26051Y13952D1*
X26037Y13980D1*
X26008Y14009D1*
X25979Y14023D1*
X25922D1*
X26258D2*
Y13722D1*
X26158Y14023D2*
X26359D1*
X26481D2*
Y13722D1*
X26622Y14023D2*
Y13722D1*
X26481Y14023D2*
X26622D1*
X26451Y13722D2*
X26652D1*
X26451D2*
Y13692D1*
X26652Y13722D2*
Y13692D1*
X26931Y14023D2*
X26745D1*
Y13722D1*
X26931D1*
X26745Y13880D2*
X26860D1*
X27254Y13722D2*
X27139Y14023D1*
X27024Y13722D1*
X27346Y13880D2*
X27476D1*
X27519Y13865D1*
X27533Y13851D1*
X27547Y13822D1*
Y13779D1*
X27533Y13751D1*
X27519Y13736D1*
X27476Y13722D1*
X27346D1*
Y14023D1*
X27640D2*
Y13722D1*
X27841Y14023D2*
Y13722D1*
X27640Y13880D2*
X27841D1*
X27934D2*
X28063D1*
X28106Y13865D1*
X28120Y13851D1*
X28135Y13822D1*
Y13779D1*
X28120Y13751D1*
X28106Y13736D1*
X28063Y13722D1*
X27934D1*
Y14023D1*
X28202Y13722D2*
Y14023D1*
X28424Y14055D2*
X28364D1*
X28295Y14023D2*
Y13722D1*
X28496Y14023D2*
Y13722D1*
Y14023D2*
X28295Y13722D1*
X26398Y13273D2*
Y12972D1*
X26527D1*
X26571Y12986D1*
X26585Y13001D1*
X26599Y13029D1*
Y13072D1*
X26585Y13101D1*
X26571Y13115D1*
X26527Y13130D1*
X26571Y13144D1*
X26585Y13159D1*
X26599Y13187D1*
Y13216D1*
X26585Y13244D1*
X26571Y13259D1*
X26527Y13273D1*
X26398D1*
Y13130D2*
X26527D1*
X26692D2*
X26821D1*
X26864Y13115D1*
X26878Y13101D1*
X26893Y13072D1*
Y13029D1*
X26878Y13001D1*
X26864Y12986D1*
X26821Y12972D1*
X26692D1*
Y13273D1*
X26960Y12972D2*
Y13273D1*
X27283Y12972D2*
X27053Y13273D1*
X27283D2*
X27053Y12972D1*
X27462Y13273D2*
X27433Y13259D1*
X27404Y13230D1*
X27390Y13202D1*
X27375Y13159D1*
Y13087D1*
X27390Y13044D1*
X27404Y13015D1*
X27433Y12986D1*
X27462Y12972D1*
X27519D1*
X27548Y12986D1*
X27576Y13015D1*
X27591Y13044D1*
X27605Y13087D1*
Y13159D1*
X27591Y13202D1*
X27576Y13230D1*
X27548Y13259D1*
X27519Y13273D1*
X27462D1*
X27727D2*
Y12972D1*
X27869Y13273D2*
Y12972D1*
X27727Y13273D2*
X27869D1*
X27698Y12972D2*
X27899D1*
X27698D2*
Y12942D1*
X27899Y12972D2*
Y12942D1*
X29542Y16171D2*
D87*
X29857D1*
X29685Y15941D1*
X29771D1*
X29828Y15913D1*
X29857Y15884D1*
X29886Y15798D1*
Y15741D1*
X29857Y15655D1*
X29800Y15597D1*
X29713Y15569D1*
X29627D1*
X29542Y15597D1*
X29513Y15626D1*
X29484Y15683D1*
X29513Y13778D2*
Y13806D1*
X29542Y13864D1*
X29570Y13892D1*
X29628Y13921D1*
X29742D1*
X29800Y13892D1*
X29828Y13864D1*
X29857Y13806D1*
Y13749D1*
X29828Y13691D1*
X29771Y13606D1*
X29484Y13319D1*
X29886D1*
X29546Y11931D2*
X29604Y11960D1*
X29690Y12046D1*
Y11444D1*
X1577Y11933D2*
D12*
X1633Y11778D1*
X1644Y11799D2*
X1625Y11761D1*
X1606Y11741D1*
X1587Y11731D1*
X1577D1*
X1702Y11933D2*
X1644Y11799D1*
X1764Y11932D2*
Y11731D1*
X1898Y11932D2*
Y11731D1*
X1764Y11932D2*
X1898D1*
X1959Y11827D2*
X2046D1*
X2074Y11836D1*
X2084Y11846D1*
X2093Y11865D1*
Y11894D1*
X2084Y11913D1*
X2074Y11923D1*
X2046Y11932D1*
X1959D1*
Y11731D1*
X1572Y10870D2*
X1544Y10861D1*
X1524Y10832D1*
X1515Y10784D1*
Y10755D1*
X1524Y10708D1*
X1544Y10679D1*
X1572Y10669D1*
X1591D1*
X1620Y10679D1*
X1639Y10708D1*
X1649Y10755D1*
Y10784D1*
X1639Y10832D1*
X1620Y10861D1*
X1591Y10870D1*
X1572D1*
X1639Y10832D2*
X1524Y10708D1*
X1972Y10923D2*
X1953Y10904D1*
X1934Y10875D1*
X1915Y10837D1*
X1905Y10789D1*
Y10751D1*
X1915Y10703D1*
X1934Y10665D1*
X1953Y10636D1*
X1972Y10617D1*
X2034Y10870D2*
Y10669D1*
X2168Y10870D2*
Y10669D1*
X2034Y10775D2*
X2168D1*
X2230Y10803D2*
X2335D1*
X2230Y10669D1*
X2335D1*
X2397Y10923D2*
X2416Y10904D1*
X2435Y10875D1*
X2454Y10837D1*
X2464Y10789D1*
Y10751D1*
X2454Y10703D1*
X2435Y10665D1*
X2416Y10636D1*
X2397Y10617D1*
X1583Y9821D2*
X1688D1*
X1630Y9745D1*
X1659D1*
X1678Y9735D1*
X1688Y9726D1*
X1697Y9697D1*
Y9678D1*
X1688Y9649D1*
X1669Y9630D1*
X1640Y9620D1*
X1611D1*
X1583Y9630D1*
X1573Y9640D1*
X1563Y9659D1*
X1769Y9640D2*
X1759Y9630D1*
X1769Y9620D1*
X1778Y9630D1*
X1769Y9640D1*
X1859Y9821D2*
X1964D1*
X1907Y9745D1*
X1936D1*
X1955Y9735D1*
X1964Y9726D1*
X1974Y9697D1*
Y9678D1*
X1964Y9649D1*
X1945Y9630D1*
X1917Y9620D1*
X1888D1*
X1859Y9630D1*
X1850Y9640D1*
X1840Y9659D1*
X2036Y9721D2*
X2146D1*
X2323Y9821D2*
X2227D1*
X2218Y9735D1*
X2227Y9745D1*
X2256Y9754D1*
X2285D1*
X2313Y9745D1*
X2333Y9726D1*
X2342Y9697D1*
Y9678D1*
X2333Y9649D1*
X2313Y9630D1*
X2285Y9620D1*
X2256D1*
X2227Y9630D1*
X2218Y9640D1*
X2208Y9659D1*
X1783Y8759D2*
X1774Y8778D1*
X1755Y8797D1*
X1736Y8806D1*
X1697D1*
X1678Y8797D1*
X1659Y8778D1*
X1649Y8759D1*
X1640Y8730D1*
Y8682D1*
X1649Y8653D1*
X1659Y8634D1*
X1678Y8615D1*
X1697Y8605D1*
X1736D1*
X1755Y8615D1*
X1774Y8634D1*
X1783Y8653D1*
Y8682D1*
X1736D1*
X1979Y8806D2*
Y8605D1*
X1845Y8806D1*
Y8605D1*
X2041Y8806D2*
Y8605D1*
X2108D1*
X2137Y8615D1*
X2156Y8634D1*
X2165Y8653D1*
X2175Y8682D1*
Y8730D1*
X2165Y8759D1*
X2156Y8778D1*
X2137Y8797D1*
X2108Y8806D1*
X2041D1*
X1577Y7745D2*
Y7544D1*
X1711Y7745D2*
Y7544D1*
X1577Y7745D2*
X1711D1*
X1773D2*
Y7544D1*
X1907Y7745D2*
Y7544D1*
X1773Y7649D2*
X1907D1*
X1969Y7659D2*
X1981Y7630D1*
X1993Y7620D1*
X2018Y7611D1*
X2054D1*
X2078Y7620D1*
X2091Y7630D1*
X2103Y7659D1*
Y7745D2*
Y7544D1*
X1969Y7745D2*
Y7659D1*
X2426Y7797D2*
X2407Y7778D1*
X2388Y7750D1*
X2368Y7711D1*
X2359Y7663D1*
Y7625D1*
X2368Y7577D1*
X2388Y7539D1*
X2407Y7511D1*
X2426Y7491D1*
X2488Y7745D2*
Y7544D1*
X2622Y7745D2*
Y7544D1*
X2488Y7649D2*
X2622D1*
X2683Y7678D2*
X2789D1*
X2683Y7544D1*
X2789D1*
X2850Y7797D2*
X2870Y7778D1*
X2889Y7750D1*
X2908Y7711D1*
X2917Y7663D1*
Y7625D1*
X2908Y7577D1*
X2889Y7539D1*
X2870Y7511D1*
X2850Y7491D1*
M02*
