G04 DipTrace 2.4.0.2*
%INTop_graphics.gbr*%
%MOIN*%
%ADD10C,0.0098*%
%ADD12C,0.003*%
%FSLAX44Y44*%
G04*
G70*
G90*
G75*
G01*
%LNTopAssy*%
%LPD*%
X1098Y12367D2*
D10*
Y6383D1*
X1481Y10370D2*
D12*
X1280D1*
Y10283D1*
X1290Y10255D1*
X1300Y10245D1*
X1319Y10236D1*
X1347D1*
X1367Y10245D1*
X1376Y10255D1*
X1386Y10283D1*
X1395Y10255D1*
X1405Y10245D1*
X1424Y10236D1*
X1443D1*
X1462Y10245D1*
X1472Y10255D1*
X1481Y10283D1*
Y10370D1*
X1386D2*
Y10283D1*
X1481Y10116D2*
X1472Y10136D1*
X1453Y10155D1*
X1434Y10164D1*
X1405Y10174D1*
X1357D1*
X1328Y10164D1*
X1309Y10155D1*
X1290Y10136D1*
X1280Y10116D1*
Y10078D1*
X1290Y10059D1*
X1309Y10040D1*
X1328Y10030D1*
X1357Y10021D1*
X1405D1*
X1434Y10030D1*
X1453Y10040D1*
X1472Y10059D1*
X1481Y10078D1*
Y10116D1*
X1280Y9806D2*
X1481Y9883D1*
X1280Y9959D1*
X1347Y9930D2*
Y9835D1*
X1386Y9744D2*
Y9658D1*
X1395Y9630D1*
X1405Y9620D1*
X1424Y9610D1*
X1443D1*
X1462Y9620D1*
X1472Y9630D1*
X1481Y9658D1*
Y9744D1*
X1280D1*
X1386Y9677D2*
X1280Y9610D1*
X1481Y9549D2*
X1280D1*
Y9482D1*
X1290Y9453D1*
X1309Y9434D1*
X1328Y9424D1*
X1357Y9415D1*
X1405D1*
X1434Y9424D1*
X1453Y9434D1*
X1472Y9453D1*
X1481Y9482D1*
Y9549D1*
Y9034D2*
Y9158D1*
X1280D1*
Y9034D1*
X1386Y9158D2*
Y9082D1*
X1481Y8972D2*
X1280D1*
Y8905D1*
X1290Y8877D1*
X1309Y8857D1*
X1328Y8848D1*
X1357Y8838D1*
X1405D1*
X1434Y8848D1*
X1453Y8857D1*
X1472Y8877D1*
X1481Y8905D1*
Y8972D1*
X1434Y8633D2*
X1453Y8643D1*
X1472Y8662D1*
X1481Y8681D1*
Y8719D1*
X1472Y8738D1*
X1453Y8757D1*
X1434Y8767D1*
X1405Y8777D1*
X1357D1*
X1328Y8767D1*
X1309Y8757D1*
X1290Y8738D1*
X1280Y8719D1*
Y8681D1*
X1290Y8662D1*
X1309Y8643D1*
X1328Y8633D1*
X1357D1*
Y8681D1*
X1481Y8447D2*
Y8571D1*
X1280D1*
Y8447D1*
X1386Y8571D2*
Y8495D1*
M02*
