G04 DipTrace 2.4.0.2*
%INUpper_p_mask.gbr*%
%MOIN*%
%ADD52R,0.0354X0.0157*%
%ADD54R,0.0709X0.0157*%
%ADD56R,0.063X0.0551*%
%ADD58R,0.063X0.1181*%
%ADD60R,0.0551X0.063*%
%ADD62R,0.0354X0.0315*%
%ADD64R,0.0315X0.0354*%
%ADD66R,0.0551X0.0984*%
%ADD68R,0.0177X0.0335*%
%ADD75R,0.063X0.0472*%
%ADD77R,0.0748X0.0472*%
%ADD81R,0.126X0.0669*%
%ADD83R,0.0433X0.0512*%
%ADD85R,0.1535X0.0846*%
%FSLAX44Y44*%
G04*
G70*
G90*
G75*
G01*
%LNTopPaste*%
%LPD*%
D85*
X20937Y6687D3*
Y9148D3*
D83*
X17250Y1250D3*
X16502D3*
D81*
X13500Y3250D3*
Y1715D3*
D83*
X17251Y7687D3*
X16503D3*
D77*
X23687Y6812D3*
Y8545D3*
X25188Y6812D3*
Y8545D3*
X23687Y10000D3*
Y11732D3*
X25188Y10000D3*
Y11732D3*
D75*
X20562Y10500D3*
Y11839D3*
D68*
X7563Y11750D3*
X8311D3*
X7937Y12656D3*
D66*
X27188Y7375D3*
X28290D3*
X27250Y2812D3*
X28352D3*
D64*
X21625Y11375D3*
Y10706D3*
D62*
X7625Y10875D3*
X8294D3*
D64*
X6625Y11750D3*
Y12419D3*
D62*
X3500Y12500D3*
X2831D3*
D60*
X24750Y13812D3*
X23648D3*
D58*
X16501Y14500D3*
X18706D3*
D64*
X9125Y12375D3*
Y11706D3*
X18438Y5625D3*
Y6294D3*
X19563Y2875D3*
Y3544D3*
D56*
X20625Y4000D3*
Y2898D3*
D64*
X14125Y4813D3*
Y5482D3*
D62*
X7625Y6500D3*
X8294D3*
X7625Y5375D3*
X8294D3*
D56*
X28440Y4187D3*
Y5289D3*
X27065Y4187D3*
Y5289D3*
X28377Y8750D3*
Y9852D3*
X27065Y8750D3*
Y9852D3*
D54*
X15812Y3937D3*
Y3437D3*
Y2937D3*
Y2437D3*
X17938D3*
Y2937D3*
Y3437D3*
Y3937D3*
D52*
X5500Y11750D3*
Y12124D3*
Y12498D3*
X4437D3*
Y11750D3*
D68*
X17250Y6312D3*
X16502D3*
X16876Y5407D3*
M02*
