G04 DipTrace 2.4.0.2*
%INUpper_mask.gbr*%
%MOIN*%
%ADD22R,0.0748X0.0748*%
%ADD23C,0.0748*%
%ADD27R,0.0669X0.0669*%
%ADD28C,0.0669*%
%ADD43C,0.1181*%
%ADD51R,0.0512X0.0315*%
%ADD53R,0.0866X0.0315*%
%ADD55R,0.0787X0.0709*%
%ADD57R,0.0787X0.1339*%
%ADD59R,0.0709X0.0787*%
%ADD61R,0.0512X0.0472*%
%ADD63R,0.0472X0.0512*%
%ADD65R,0.0709X0.1142*%
%ADD67R,0.0335X0.0492*%
%ADD69C,0.0669*%
%ADD71C,0.0827*%
%ADD72C,0.1654*%
%ADD74R,0.0787X0.063*%
%ADD76R,0.0906X0.063*%
%ADD78C,0.0827*%
%ADD79R,0.0827X0.0827*%
%ADD80R,0.1417X0.0827*%
%ADD82R,0.0591X0.0669*%
%ADD84R,0.1693X0.1004*%
%FSLAX44Y44*%
G04*
G70*
G90*
G75*
G01*
%LNTopMask*%
%LPD*%
D84*
X20937Y6687D3*
Y9148D3*
D82*
X17250Y1250D3*
X16502D3*
D80*
X13500Y3250D3*
Y1715D3*
D82*
X17251Y7687D3*
X16503D3*
D79*
X23125Y15875D3*
D78*
X24125D3*
X25125D3*
D76*
X23687Y6812D3*
Y8545D3*
X25188Y6812D3*
Y8545D3*
X23687Y10000D3*
Y11732D3*
X25188Y10000D3*
Y11732D3*
D74*
X20562Y10500D3*
Y11839D3*
D43*
X19188Y17375D3*
X29062D3*
X33250Y18000D3*
Y1000D3*
X1000Y18000D3*
Y1000D3*
D72*
X32062Y2937D3*
Y4906D3*
X32063Y11875D3*
Y13844D3*
Y15812D3*
X32062Y7375D3*
Y9344D3*
X3750Y2250D3*
X5719D3*
X7687D3*
D22*
X500Y11375D3*
D23*
Y10375D3*
Y9375D3*
Y8375D3*
Y7375D3*
D72*
X5750Y16750D3*
X3781D3*
D71*
X24127Y18063D3*
D69*
X11875Y4000D3*
Y875D3*
X19314Y8500D3*
Y7250D3*
D67*
X7563Y11750D3*
X8311D3*
X7937Y12656D3*
D65*
X27188Y7375D3*
X28290D3*
X27250Y2812D3*
X28352D3*
D63*
X21625Y11375D3*
Y10706D3*
D61*
X7625Y10875D3*
X8294D3*
D63*
X6625Y11750D3*
Y12419D3*
D61*
X3500Y12500D3*
X2831D3*
D59*
X24750Y13812D3*
X23648D3*
D57*
X16501Y14500D3*
X18706D3*
D63*
X9125Y12375D3*
Y11706D3*
X18438Y5625D3*
Y6294D3*
X19563Y2875D3*
Y3544D3*
D55*
X20625Y4000D3*
Y2898D3*
D63*
X14125Y4813D3*
Y5482D3*
D61*
X7625Y6500D3*
X8294D3*
X7625Y5375D3*
X8294D3*
D55*
X28440Y4187D3*
Y5289D3*
X27065Y4187D3*
Y5289D3*
X28377Y8750D3*
Y9852D3*
X27065Y8750D3*
Y9852D3*
D53*
X15812Y3937D3*
Y3437D3*
Y2937D3*
Y2437D3*
X17938D3*
Y2937D3*
Y3437D3*
Y3937D3*
D51*
X5500Y11750D3*
Y12124D3*
Y12498D3*
X4437D3*
Y11750D3*
D67*
X17250Y6312D3*
X16502D3*
X16876Y5407D3*
D27*
X10375Y12750D3*
D28*
Y11750D3*
Y10750D3*
X13375D3*
Y11750D3*
Y12750D3*
D27*
Y8000D3*
D69*
Y9000D3*
X10375D3*
Y8000D3*
D27*
X13375Y5500D3*
D69*
Y6500D3*
X10375D3*
Y5500D3*
M02*
