G04 DipTrace 2.4.0.2*
%INUpper_marking.gbr*%
%MOIN*%
%ADD10C,0.0098*%
%ADD15C,0.0236*%
%ADD30C,0.0154*%
%ADD86C,0.0015*%
%FSLAX44Y44*%
G04*
G70*
G90*
G75*
G01*
%LNTopSilk*%
%LPD*%
X20170Y7270D2*
D10*
Y8566D1*
X21705Y7270D2*
Y8566D1*
Y7270D2*
X20170D1*
X21705Y7343D2*
X20170D1*
X17664Y1506D2*
Y994D1*
X12870Y2644D2*
X14130D1*
X12870Y2719D2*
X14130D1*
X12870D2*
Y2246D1*
X14130Y2719D2*
Y2246D1*
X17665Y7943D2*
Y7431D1*
X22156Y16938D2*
X26094D1*
Y15166D1*
X22156D1*
Y16938D1*
Y16584D2*
X26094D1*
D15*
X23687Y6242D3*
X23176Y7206D2*
D10*
Y8151D1*
X24199Y7206D2*
Y8151D1*
D15*
X25188Y6242D3*
X24676Y7206D2*
D10*
Y8151D1*
X25699Y7206D2*
Y8151D1*
D15*
X23687Y9429D3*
X23176Y10394D2*
D10*
Y11338D1*
X24199Y10394D2*
Y11338D1*
D15*
X25188Y9429D3*
X24676Y10394D2*
D10*
Y11338D1*
X25699Y10394D2*
Y11338D1*
X20228Y10933D2*
Y11406D1*
X20897Y10933D2*
Y11406D1*
D15*
X20562Y9968D3*
X30562Y1937D2*
D10*
X34062D1*
Y5937D1*
X30562D1*
Y1937D1*
X33063D2*
Y5937D1*
X33562Y1937D2*
Y2437D1*
X33063D2*
X33562D1*
X34062D1*
X33063Y5437D2*
X34062D1*
X33562D2*
Y5937D1*
Y2937D2*
Y4937D1*
X34062D1*
X33562Y2937D2*
X34062D1*
X31063Y10844D2*
X34063D1*
Y16844D1*
X31063D1*
Y10844D1*
X33063D2*
Y16844D1*
X33562Y10844D2*
Y11343D1*
Y16344D2*
Y16844D1*
X33063Y16344D2*
X34063D1*
X33063Y11343D2*
X34063D1*
X32563D2*
X31563Y12344D1*
X32563Y13344D2*
X31563Y14343D1*
X32563Y15344D2*
X31563Y16344D1*
X33562Y11844D2*
X34063D1*
Y15843D1*
X33562D1*
Y11844D1*
X30562Y6375D2*
X34062D1*
Y10375D1*
X30562D1*
Y6375D1*
X33063D2*
Y10375D1*
X33562Y6375D2*
Y6875D1*
X33063D2*
X33562D1*
X34062D1*
X33063Y9875D2*
X34062D1*
X33562D2*
Y10375D1*
Y7375D2*
Y9375D1*
X34062D1*
X33562Y7375D2*
X34062D1*
X2719Y3250D2*
X8719D1*
Y250D1*
X2719D1*
Y3250D1*
Y1250D2*
X8719D1*
X2719Y750D2*
X3218D1*
X8219D2*
X8719D1*
X8219Y1250D2*
Y250D1*
X3218Y1250D2*
Y250D1*
Y1750D2*
X4219Y2750D1*
X5219Y1750D2*
X6218Y2750D1*
X7219Y1750D2*
X8219Y2750D1*
X3719Y750D2*
X7718D1*
Y250D1*
X3719D1*
Y750D1*
X1000Y11875D2*
X0D1*
Y6875D1*
X1000D1*
Y11875D1*
X6750Y15250D2*
X2750D1*
Y18750D1*
X6750D1*
Y15250D1*
Y17750D2*
X2750D1*
X6750Y18250D2*
X6250D1*
Y17750D2*
Y18250D1*
Y18750D1*
X3250Y17750D2*
Y18750D1*
Y18250D2*
X2750D1*
X5750D2*
X3750D1*
Y18750D1*
X5750Y18250D2*
Y18750D1*
D30*
X7254Y11603D3*
X7346Y12104D2*
D10*
X8527D1*
Y12301D1*
X7346D1*
Y12104D1*
X27621Y7867D2*
X27856D1*
X27621Y6883D2*
X27856D1*
X27683Y3305D2*
X27919D1*
X27683Y2320D2*
X27919D1*
X24317Y14127D2*
X24081D1*
X24317Y13498D2*
X24081D1*
X16974Y15091D2*
X18233D1*
X16974Y13909D2*
X18233D1*
X20311Y3567D2*
Y3331D1*
X20940Y3567D2*
Y3331D1*
X28754Y4620D2*
Y4856D1*
X28125Y4620D2*
Y4856D1*
X27379Y4620D2*
Y4856D1*
X26750Y4620D2*
Y4856D1*
X28692Y9183D2*
Y9419D1*
X28063Y9183D2*
Y9419D1*
X27379Y9183D2*
Y9419D1*
X26750Y9183D2*
Y9419D1*
X16364Y4172D2*
Y2203D1*
X17387Y4172D2*
Y2203D1*
X16364D2*
X17387D1*
X16679Y4172D2*
X16364D1*
X17072D2*
X17387D1*
X16679D2*
G03X17072Y4172I197J0D01*
G01*
D30*
X5666Y11481D3*
X5126Y11533D2*
D10*
Y12715D1*
X4811Y11533D2*
Y12715D1*
X5126D2*
X4811D1*
X5126Y11533D2*
X4811D1*
D30*
X17559Y6460D3*
X17467Y5958D2*
D10*
X16286D1*
Y5762D1*
X17467D1*
Y5958D1*
X10852Y9900D2*
X12898D1*
X10852Y13600D2*
Y9900D1*
X12898Y13600D2*
Y9900D1*
X10852Y13600D2*
X11638D1*
X12898D2*
X12112D1*
X11638D2*
G03X12112Y13600I237J0D01*
G01*
X12899Y7476D2*
Y9524D1*
X10851D1*
Y7476D1*
X11639D1*
X12111D2*
X12899D1*
X12111D2*
G03X11639Y7476I-236J0D01*
G01*
X12899Y4976D2*
Y7024D1*
X10851D1*
Y4976D1*
X11639D1*
X12111D2*
X12899D1*
X12111D2*
G03X11639Y4976I-236J0D01*
G01*
X20946Y9733D2*
D86*
X20941Y9743D1*
X20932Y9752D1*
X20922Y9757D1*
X20903D1*
X20893Y9752D1*
X20884Y9743D1*
X20879Y9733D1*
X20874Y9719D1*
Y9695D1*
X20879Y9681D1*
X20884Y9671D1*
X20893Y9662D1*
X20903Y9657D1*
X20922D1*
X20932Y9662D1*
X20941Y9671D1*
X20946Y9681D1*
X20977Y9738D2*
X20986Y9743D1*
X21001Y9757D1*
Y9657D1*
X16942Y1668D2*
X16937Y1677D1*
X16927Y1687D1*
X16918Y1692D1*
X16899D1*
X16889Y1687D1*
X16880Y1677D1*
X16875Y1668D1*
X16870Y1653D1*
Y1629D1*
X16875Y1615D1*
X16880Y1606D1*
X16889Y1596D1*
X16899Y1591D1*
X16918D1*
X16927Y1596D1*
X16937Y1606D1*
X16942Y1615D1*
X16978Y1668D2*
Y1672D1*
X16982Y1682D1*
X16987Y1687D1*
X16997Y1692D1*
X17016D1*
X17025Y1687D1*
X17030Y1682D1*
X17035Y1672D1*
Y1663D1*
X17030Y1653D1*
X17021Y1639D1*
X16973Y1591D1*
X17040D1*
X13487Y3747D2*
X13482Y3756D1*
X13473Y3766D1*
X13463Y3770D1*
X13444D1*
X13434Y3766D1*
X13425Y3756D1*
X13420Y3747D1*
X13415Y3732D1*
Y3708D1*
X13420Y3694D1*
X13425Y3684D1*
X13434Y3675D1*
X13444Y3670D1*
X13463D1*
X13473Y3675D1*
X13482Y3684D1*
X13487Y3694D1*
X13527Y3770D2*
X13580D1*
X13551Y3732D1*
X13566D1*
X13575Y3727D1*
X13580Y3723D1*
X13585Y3708D1*
Y3699D1*
X13580Y3684D1*
X13570Y3675D1*
X13556Y3670D1*
X13542D1*
X13527Y3675D1*
X13523Y3680D1*
X13518Y3689D1*
X16940Y8105D2*
X16936Y8114D1*
X16926Y8124D1*
X16917Y8129D1*
X16897D1*
X16888Y8124D1*
X16878Y8114D1*
X16874Y8105D1*
X16869Y8091D1*
Y8067D1*
X16874Y8052D1*
X16878Y8043D1*
X16888Y8033D1*
X16897Y8028D1*
X16917D1*
X16926Y8033D1*
X16936Y8043D1*
X16940Y8052D1*
X17019Y8028D2*
Y8129D1*
X16971Y8062D1*
X17043D1*
X24064Y17084D2*
Y16984D1*
X24098D1*
X24112Y16989D1*
X24122Y16998D1*
X24126Y17008D1*
X24131Y17022D1*
Y17046D1*
X24126Y17061D1*
X24122Y17070D1*
X24112Y17080D1*
X24098Y17084D1*
X24064D1*
X24162Y17065D2*
X24172Y17070D1*
X24186Y17084D1*
Y16984D1*
X23605Y8967D2*
Y8866D1*
X23639D1*
X23653Y8871D1*
X23663Y8881D1*
X23667Y8890D1*
X23672Y8905D1*
Y8929D1*
X23667Y8943D1*
X23663Y8952D1*
X23653Y8962D1*
X23639Y8967D1*
X23605D1*
X23708Y8943D2*
Y8948D1*
X23713Y8957D1*
X23717Y8962D1*
X23727Y8967D1*
X23746D1*
X23756Y8962D1*
X23760Y8957D1*
X23765Y8948D1*
Y8938D1*
X23760Y8928D1*
X23751Y8914D1*
X23703Y8866D1*
X23770D1*
X25105Y8967D2*
Y8866D1*
X25139D1*
X25153Y8871D1*
X25163Y8881D1*
X25167Y8890D1*
X25172Y8905D1*
Y8929D1*
X25167Y8943D1*
X25163Y8952D1*
X25153Y8962D1*
X25139Y8967D1*
X25105D1*
X25213D2*
X25265D1*
X25236Y8928D1*
X25251D1*
X25260Y8924D1*
X25265Y8919D1*
X25270Y8905D1*
Y8895D1*
X25265Y8881D1*
X25256Y8871D1*
X25241Y8866D1*
X25227D1*
X25213Y8871D1*
X25208Y8876D1*
X25203Y8885D1*
X23603Y12154D2*
Y12054D1*
X23636D1*
X23651Y12059D1*
X23660Y12068D1*
X23665Y12078D1*
X23670Y12092D1*
Y12116D1*
X23665Y12130D1*
X23660Y12140D1*
X23651Y12150D1*
X23636Y12154D1*
X23603D1*
X23748Y12054D2*
Y12154D1*
X23701Y12087D1*
X23772D1*
X25105Y12154D2*
Y12054D1*
X25139D1*
X25153Y12059D1*
X25163Y12068D1*
X25167Y12078D1*
X25172Y12092D1*
Y12116D1*
X25167Y12130D1*
X25163Y12140D1*
X25153Y12150D1*
X25139Y12154D1*
X25105D1*
X25260D2*
X25213D1*
X25208Y12111D1*
X25213Y12116D1*
X25227Y12121D1*
X25241D1*
X25256Y12116D1*
X25265Y12106D1*
X25270Y12092D1*
Y12083D1*
X25265Y12068D1*
X25256Y12059D1*
X25241Y12054D1*
X25227D1*
X25213Y12059D1*
X25208Y12063D1*
X25203Y12073D1*
X20482Y12261D2*
Y12160D1*
X20516D1*
X20530Y12165D1*
X20540Y12175D1*
X20545Y12184D1*
X20549Y12198D1*
Y12222D1*
X20545Y12237D1*
X20540Y12246D1*
X20530Y12256D1*
X20516Y12261D1*
X20482D1*
X20638Y12246D2*
X20633Y12256D1*
X20619Y12261D1*
X20609D1*
X20595Y12256D1*
X20585Y12241D1*
X20580Y12218D1*
Y12194D1*
X20585Y12175D1*
X20595Y12165D1*
X20609Y12160D1*
X20614D1*
X20628Y12165D1*
X20638Y12175D1*
X20642Y12189D1*
Y12194D1*
X20638Y12208D1*
X20628Y12218D1*
X20614Y12222D1*
X20609D1*
X20595Y12218D1*
X20585Y12208D1*
X20580Y12194D1*
X32309Y6084D2*
Y6007D1*
X32304Y5993D1*
X32299Y5988D1*
X32290Y5983D1*
X32280D1*
X32271Y5988D1*
X32266Y5993D1*
X32261Y6007D1*
Y6017D1*
X32340Y6065D2*
X32349Y6070D1*
X32364Y6084D1*
Y5983D1*
X32538Y16990D2*
Y16913D1*
X32533Y16899D1*
X32528Y16894D1*
X32518Y16889D1*
X32509D1*
X32499Y16894D1*
X32495Y16899D1*
X32490Y16913D1*
Y16923D1*
X32573Y16966D2*
Y16971D1*
X32578Y16980D1*
X32583Y16985D1*
X32592Y16990D1*
X32611D1*
X32621Y16985D1*
X32626Y16980D1*
X32631Y16971D1*
Y16961D1*
X32626Y16952D1*
X32616Y16937D1*
X32568Y16889D1*
X32635D1*
X32287Y10521D2*
Y10445D1*
X32283Y10431D1*
X32278Y10426D1*
X32268Y10421D1*
X32259D1*
X32249Y10426D1*
X32244Y10431D1*
X32240Y10445D1*
Y10454D1*
X32328Y10521D2*
X32380D1*
X32352Y10483D1*
X32366D1*
X32376Y10478D1*
X32380Y10474D1*
X32385Y10459D1*
Y10450D1*
X32380Y10435D1*
X32371Y10426D1*
X32357Y10421D1*
X32342D1*
X32328Y10426D1*
X32323Y10431D1*
X32318Y10440D1*
X5691Y3396D2*
Y3320D1*
X5686Y3306D1*
X5682Y3301D1*
X5672Y3296D1*
X5662D1*
X5653Y3301D1*
X5648Y3306D1*
X5643Y3320D1*
Y3329D1*
X5770Y3296D2*
Y3396D1*
X5722Y3329D1*
X5794D1*
X750Y12514D2*
Y12437D1*
X745Y12423D1*
X740Y12418D1*
X730Y12413D1*
X721D1*
X711Y12418D1*
X707Y12423D1*
X702Y12437D1*
Y12447D1*
X838Y12513D2*
X790D1*
X785Y12470D1*
X790Y12475D1*
X804Y12480D1*
X819D1*
X833Y12475D1*
X843Y12466D1*
X847Y12451D1*
Y12442D1*
X843Y12427D1*
X833Y12418D1*
X819Y12413D1*
X804D1*
X790Y12418D1*
X785Y12423D1*
X780Y12432D1*
X4727Y18896D2*
Y18820D1*
X4723Y18806D1*
X4718Y18801D1*
X4708Y18796D1*
X4699D1*
X4689Y18801D1*
X4684Y18806D1*
X4680Y18820D1*
Y18829D1*
X4816Y18882D2*
X4811Y18892D1*
X4797Y18896D1*
X4787D1*
X4773Y18892D1*
X4763Y18877D1*
X4758Y18853D1*
Y18829D1*
X4763Y18810D1*
X4773Y18801D1*
X4787Y18796D1*
X4792D1*
X4806Y18801D1*
X4816Y18810D1*
X4820Y18825D1*
Y18829D1*
X4816Y18844D1*
X4806Y18853D1*
X4792Y18858D1*
X4787D1*
X4773Y18853D1*
X4763Y18844D1*
X4758Y18829D1*
X7815Y13009D2*
X7806Y13004D1*
X7796Y12994D1*
X7791Y12985D1*
X7786Y12970D1*
Y12947D1*
X7791Y12932D1*
X7796Y12923D1*
X7806Y12913D1*
X7815Y12908D1*
X7834D1*
X7844Y12913D1*
X7853Y12923D1*
X7858Y12932D1*
X7863Y12947D1*
Y12970D1*
X7858Y12985D1*
X7853Y12994D1*
X7844Y13004D1*
X7834Y13009D1*
X7815D1*
X7829Y12927D2*
X7858Y12899D1*
X7894Y12989D2*
X7903Y12994D1*
X7918Y13009D1*
Y12908D1*
X27678Y8005D2*
X27721D1*
X27735Y8010D1*
X27740Y8015D1*
X27745Y8024D1*
Y8034D1*
X27740Y8043D1*
X27735Y8048D1*
X27721Y8053D1*
X27678D1*
Y7952D1*
X27711Y8005D2*
X27745Y7952D1*
X27776Y8034D2*
X27785Y8039D1*
X27800Y8053D1*
Y7952D1*
X27719Y3443D2*
X27762D1*
X27776Y3447D1*
X27781Y3452D1*
X27786Y3462D1*
Y3471D1*
X27781Y3481D1*
X27776Y3486D1*
X27762Y3490D1*
X27719D1*
Y3390D1*
X27752Y3443D2*
X27786Y3390D1*
X27821Y3466D2*
Y3471D1*
X27826Y3481D1*
X27831Y3486D1*
X27841Y3490D1*
X27860D1*
X27869Y3486D1*
X27874Y3481D1*
X27879Y3471D1*
Y3462D1*
X27874Y3452D1*
X27864Y3438D1*
X27817Y3390D1*
X27884D1*
X21543Y11690D2*
X21586D1*
X21600Y11695D1*
X21605Y11700D1*
X21610Y11709D1*
Y11719D1*
X21605Y11728D1*
X21600Y11733D1*
X21586Y11738D1*
X21543D1*
Y11638D1*
X21576Y11690D2*
X21610Y11638D1*
X21650Y11738D2*
X21703D1*
X21674Y11700D1*
X21688D1*
X21698Y11695D1*
X21703Y11690D1*
X21707Y11676D1*
Y11666D1*
X21703Y11652D1*
X21693Y11642D1*
X21679Y11638D1*
X21664D1*
X21650Y11642D1*
X21645Y11647D1*
X21640Y11657D1*
X7875Y11170D2*
X7918D1*
X7932Y11175D1*
X7937Y11180D1*
X7942Y11190D1*
Y11199D1*
X7937Y11209D1*
X7932Y11214D1*
X7918Y11218D1*
X7875D1*
Y11118D1*
X7908Y11170D2*
X7942Y11118D1*
X8021D2*
Y11218D1*
X7973Y11151D1*
X8044D1*
X6543Y12734D2*
X6586D1*
X6600Y12739D1*
X6605Y12744D1*
X6610Y12754D1*
Y12763D1*
X6605Y12773D1*
X6600Y12778D1*
X6586Y12782D1*
X6543D1*
Y12682D1*
X6576Y12734D2*
X6610Y12682D1*
X6698Y12782D2*
X6650D1*
X6645Y12739D1*
X6650Y12744D1*
X6664Y12749D1*
X6679D1*
X6693Y12744D1*
X6703Y12734D1*
X6707Y12720D1*
Y12711D1*
X6703Y12696D1*
X6693Y12687D1*
X6679Y12682D1*
X6664D1*
X6650Y12687D1*
X6645Y12691D1*
X6640Y12701D1*
X3085Y12795D2*
X3128D1*
X3143Y12800D1*
X3148Y12805D1*
X3152Y12815D1*
Y12824D1*
X3148Y12834D1*
X3143Y12839D1*
X3128Y12843D1*
X3085D1*
Y12743D1*
X3119Y12795D2*
X3152Y12743D1*
X3241Y12829D2*
X3236Y12838D1*
X3221Y12843D1*
X3212D1*
X3198Y12838D1*
X3188Y12824D1*
X3183Y12800D1*
Y12776D1*
X3188Y12757D1*
X3198Y12748D1*
X3212Y12743D1*
X3217D1*
X3231Y12748D1*
X3241Y12757D1*
X3245Y12772D1*
Y12776D1*
X3241Y12791D1*
X3231Y12800D1*
X3217Y12805D1*
X3212D1*
X3198Y12800D1*
X3188Y12791D1*
X3183Y12776D1*
X24116Y14265D2*
X24159D1*
X24174Y14270D1*
X24179Y14275D1*
X24183Y14285D1*
Y14294D1*
X24179Y14304D1*
X24174Y14309D1*
X24159Y14313D1*
X24116D1*
Y14213D1*
X24150Y14265D2*
X24183Y14213D1*
X24233D2*
X24281Y14313D1*
X24214D1*
X17521Y15229D2*
X17564D1*
X17578Y15234D1*
X17583Y15238D1*
X17588Y15248D1*
Y15258D1*
X17583Y15267D1*
X17578Y15272D1*
X17564Y15277D1*
X17521D1*
Y15176D1*
X17555Y15229D2*
X17588Y15176D1*
X17643Y15277D2*
X17628Y15272D1*
X17624Y15262D1*
Y15253D1*
X17628Y15243D1*
X17638Y15238D1*
X17657Y15234D1*
X17671Y15229D1*
X17681Y15219D1*
X17686Y15210D1*
Y15195D1*
X17681Y15186D1*
X17676Y15181D1*
X17662Y15176D1*
X17643D1*
X17628Y15181D1*
X17624Y15186D1*
X17619Y15195D1*
Y15210D1*
X17624Y15219D1*
X17633Y15229D1*
X17648Y15234D1*
X17667Y15238D1*
X17676Y15243D1*
X17681Y15253D1*
Y15262D1*
X17676Y15272D1*
X17662Y15277D1*
X17643D1*
X9045Y12690D2*
X9088D1*
X9102Y12695D1*
X9107Y12700D1*
X9112Y12709D1*
Y12719D1*
X9107Y12728D1*
X9102Y12733D1*
X9088Y12738D1*
X9045D1*
Y12638D1*
X9078Y12690D2*
X9112Y12638D1*
X9205Y12704D2*
X9200Y12690D1*
X9191Y12681D1*
X9176Y12676D1*
X9172D1*
X9157Y12681D1*
X9148Y12690D1*
X9143Y12704D1*
Y12709D1*
X9148Y12724D1*
X9157Y12733D1*
X9172Y12738D1*
X9176D1*
X9191Y12733D1*
X9200Y12724D1*
X9205Y12704D1*
Y12681D1*
X9200Y12657D1*
X9191Y12642D1*
X9176Y12638D1*
X9167D1*
X9152Y12642D1*
X9148Y12652D1*
X18328Y6609D2*
X18371D1*
X18386Y6614D1*
X18390Y6619D1*
X18395Y6629D1*
Y6638D1*
X18390Y6648D1*
X18386Y6653D1*
X18371Y6657D1*
X18328D1*
Y6557D1*
X18362Y6609D2*
X18395Y6557D1*
X18426Y6638D2*
X18436Y6643D1*
X18450Y6657D1*
Y6557D1*
X18510Y6657D2*
X18495Y6652D1*
X18486Y6638D1*
X18481Y6614D1*
Y6600D1*
X18486Y6576D1*
X18495Y6562D1*
X18510Y6557D1*
X18519D1*
X18533Y6562D1*
X18543Y6576D1*
X18548Y6600D1*
Y6614D1*
X18543Y6638D1*
X18533Y6652D1*
X18519Y6657D1*
X18510D1*
X18543Y6638D2*
X18486Y6576D1*
X19475Y3859D2*
X19518D1*
X19532Y3864D1*
X19537Y3869D1*
X19542Y3879D1*
Y3888D1*
X19537Y3898D1*
X19532Y3903D1*
X19518Y3907D1*
X19475D1*
Y3807D1*
X19508Y3859D2*
X19542Y3807D1*
X19572Y3888D2*
X19582Y3893D1*
X19596Y3907D1*
Y3807D1*
X19627Y3888D2*
X19637Y3893D1*
X19651Y3907D1*
Y3807D1*
X20516Y4414D2*
X20559D1*
X20573Y4418D1*
X20578Y4423D1*
X20583Y4433D1*
Y4442D1*
X20578Y4452D1*
X20573Y4457D1*
X20559Y4461D1*
X20516D1*
Y4361D1*
X20549Y4414D2*
X20583Y4361D1*
X20614Y4442D2*
X20623Y4447D1*
X20637Y4461D1*
Y4361D1*
X20673Y4437D2*
Y4442D1*
X20678Y4452D1*
X20683Y4457D1*
X20692Y4461D1*
X20711D1*
X20721Y4457D1*
X20726Y4452D1*
X20731Y4442D1*
Y4433D1*
X20726Y4423D1*
X20716Y4409D1*
X20668Y4361D1*
X20735D1*
X14015Y5797D2*
X14058D1*
X14073Y5802D1*
X14077Y5807D1*
X14082Y5816D1*
Y5826D1*
X14077Y5835D1*
X14073Y5840D1*
X14058Y5845D1*
X14015D1*
Y5744D1*
X14049Y5797D2*
X14082Y5744D1*
X14113Y5826D2*
X14123Y5830D1*
X14137Y5845D1*
Y5744D1*
X14177Y5845D2*
X14230D1*
X14201Y5806D1*
X14216D1*
X14225Y5802D1*
X14230Y5797D1*
X14235Y5783D1*
Y5773D1*
X14230Y5759D1*
X14220Y5749D1*
X14206Y5744D1*
X14192D1*
X14177Y5749D1*
X14173Y5754D1*
X14168Y5763D1*
X7847Y6795D2*
X7890D1*
X7905Y6800D1*
X7910Y6805D1*
X7914Y6815D1*
Y6824D1*
X7910Y6834D1*
X7905Y6839D1*
X7890Y6843D1*
X7847D1*
Y6743D1*
X7881Y6795D2*
X7914Y6743D1*
X7945Y6824D2*
X7955Y6829D1*
X7969Y6843D1*
Y6743D1*
X8048D2*
Y6843D1*
X8000Y6776D1*
X8072D1*
X7850Y5670D2*
X7893D1*
X7907Y5675D1*
X7912Y5680D1*
X7917Y5690D1*
Y5699D1*
X7912Y5709D1*
X7907Y5714D1*
X7893Y5718D1*
X7850D1*
Y5618D1*
X7883Y5670D2*
X7917Y5618D1*
X7948Y5699D2*
X7957Y5704D1*
X7972Y5718D1*
Y5618D1*
X8060Y5718D2*
X8012D1*
X8007Y5675D1*
X8012Y5680D1*
X8027Y5685D1*
X8041D1*
X8055Y5680D1*
X8065Y5670D1*
X8070Y5656D1*
Y5647D1*
X8065Y5632D1*
X8055Y5623D1*
X8041Y5618D1*
X8027D1*
X8012Y5623D1*
X8007Y5627D1*
X8003Y5637D1*
X28332Y5703D2*
X28375D1*
X28390Y5707D1*
X28395Y5712D1*
X28399Y5722D1*
Y5731D1*
X28395Y5741D1*
X28390Y5746D1*
X28375Y5750D1*
X28332D1*
Y5650D1*
X28366Y5703D2*
X28399Y5650D1*
X28430Y5731D2*
X28440Y5736D1*
X28454Y5750D1*
Y5650D1*
X28542Y5736D2*
X28538Y5746D1*
X28523Y5750D1*
X28514D1*
X28499Y5746D1*
X28490Y5731D1*
X28485Y5707D1*
Y5683D1*
X28490Y5664D1*
X28499Y5655D1*
X28514Y5650D1*
X28519D1*
X28533Y5655D1*
X28542Y5664D1*
X28547Y5679D1*
Y5683D1*
X28542Y5698D1*
X28533Y5707D1*
X28519Y5712D1*
X28514D1*
X28499Y5707D1*
X28490Y5698D1*
X28485Y5683D1*
X26955Y5703D2*
X26998D1*
X27012Y5707D1*
X27017Y5712D1*
X27022Y5722D1*
Y5731D1*
X27017Y5741D1*
X27012Y5746D1*
X26998Y5750D1*
X26955D1*
Y5650D1*
X26988Y5703D2*
X27022Y5650D1*
X27053Y5731D2*
X27062Y5736D1*
X27077Y5750D1*
Y5650D1*
X27127D2*
X27174Y5750D1*
X27108D1*
X28267Y10266D2*
X28310D1*
X28325Y10270D1*
X28330Y10275D1*
X28334Y10285D1*
Y10294D1*
X28330Y10304D1*
X28325Y10309D1*
X28310Y10313D1*
X28267D1*
Y10213D1*
X28301Y10266D2*
X28334Y10213D1*
X28365Y10294D2*
X28375Y10299D1*
X28389Y10313D1*
Y10213D1*
X28444Y10313D2*
X28430Y10309D1*
X28425Y10299D1*
Y10289D1*
X28430Y10280D1*
X28439Y10275D1*
X28458Y10270D1*
X28473Y10266D1*
X28482Y10256D1*
X28487Y10246D1*
Y10232D1*
X28482Y10223D1*
X28478Y10218D1*
X28463Y10213D1*
X28444D1*
X28430Y10218D1*
X28425Y10223D1*
X28420Y10232D1*
Y10246D1*
X28425Y10256D1*
X28435Y10266D1*
X28449Y10270D1*
X28468Y10275D1*
X28478Y10280D1*
X28482Y10289D1*
Y10299D1*
X28478Y10309D1*
X28463Y10313D1*
X28444D1*
X26957Y10266D2*
X27000D1*
X27015Y10270D1*
X27019Y10275D1*
X27024Y10285D1*
Y10294D1*
X27019Y10304D1*
X27015Y10309D1*
X27000Y10313D1*
X26957D1*
Y10213D1*
X26991Y10266D2*
X27024Y10213D1*
X27055Y10294D2*
X27065Y10299D1*
X27079Y10313D1*
Y10213D1*
X27172Y10280D2*
X27167Y10266D1*
X27158Y10256D1*
X27143Y10251D1*
X27139D1*
X27124Y10256D1*
X27115Y10266D1*
X27110Y10280D1*
Y10285D1*
X27115Y10299D1*
X27124Y10309D1*
X27139Y10313D1*
X27143D1*
X27158Y10309D1*
X27167Y10299D1*
X27172Y10280D1*
Y10256D1*
X27167Y10232D1*
X27158Y10218D1*
X27143Y10213D1*
X27134D1*
X27119Y10218D1*
X27115Y10227D1*
X16815Y4318D2*
Y4246D1*
X16819Y4232D1*
X16829Y4223D1*
X16843Y4218D1*
X16853D1*
X16867Y4223D1*
X16877Y4232D1*
X16882Y4246D1*
Y4318D1*
X16912Y4299D2*
X16922Y4304D1*
X16936Y4318D1*
Y4218D1*
X4899Y12861D2*
Y12789D1*
X4904Y12775D1*
X4914Y12765D1*
X4928Y12761D1*
X4938D1*
X4952Y12765D1*
X4962Y12775D1*
X4966Y12789D1*
Y12861D1*
X5002Y12837D2*
Y12842D1*
X5007Y12851D1*
X5012Y12856D1*
X5021Y12861D1*
X5040D1*
X5050Y12856D1*
X5055Y12851D1*
X5060Y12842D1*
Y12832D1*
X5055Y12823D1*
X5045Y12808D1*
X4997Y12761D1*
X5064D1*
X16846Y6683D2*
X16885Y6583D1*
X16923Y6683D1*
X16954D2*
Y6583D1*
X16987D1*
X17002Y6588D1*
X17011Y6597D1*
X17016Y6607D1*
X17021Y6621D1*
Y6645D1*
X17016Y6659D1*
X17011Y6669D1*
X17002Y6678D1*
X16987Y6683D1*
X16954D1*
X17052Y6664D2*
X17061Y6669D1*
X17076Y6683D1*
Y6583D1*
X11756Y13747D2*
X11794Y13646D1*
X11832Y13747D1*
X11892D2*
X11882Y13742D1*
X11873Y13732D1*
X11868Y13723D1*
X11863Y13709D1*
Y13685D1*
X11868Y13670D1*
X11873Y13661D1*
X11882Y13651D1*
X11892Y13646D1*
X11911D1*
X11920Y13651D1*
X11930Y13661D1*
X11935Y13670D1*
X11939Y13685D1*
Y13709D1*
X11935Y13723D1*
X11930Y13732D1*
X11920Y13742D1*
X11911Y13747D1*
X11892D1*
X11970Y13728D2*
X11980Y13732D1*
X11994Y13747D1*
Y13646D1*
X11734Y9670D2*
X11772Y9570D1*
X11811Y9670D1*
X11870D2*
X11861Y9665D1*
X11851Y9656D1*
X11846Y9646D1*
X11842Y9632D1*
Y9608D1*
X11846Y9594D1*
X11851Y9584D1*
X11861Y9574D1*
X11870Y9570D1*
X11889D1*
X11899Y9574D1*
X11908Y9584D1*
X11913Y9594D1*
X11918Y9608D1*
Y9632D1*
X11913Y9646D1*
X11908Y9656D1*
X11899Y9665D1*
X11889Y9670D1*
X11870D1*
X11954Y9646D2*
Y9651D1*
X11958Y9660D1*
X11963Y9665D1*
X11973Y9670D1*
X11992D1*
X12001Y9665D1*
X12006Y9660D1*
X12011Y9651D1*
Y9641D1*
X12006Y9632D1*
X11997Y9617D1*
X11949Y9570D1*
X12016D1*
X11734Y7170D2*
X11772Y7070D1*
X11811Y7170D1*
X11870D2*
X11861Y7165D1*
X11851Y7156D1*
X11846Y7146D1*
X11842Y7132D1*
Y7108D1*
X11846Y7094D1*
X11851Y7084D1*
X11861Y7074D1*
X11870Y7070D1*
X11889D1*
X11899Y7074D1*
X11908Y7084D1*
X11913Y7094D1*
X11918Y7108D1*
Y7132D1*
X11913Y7146D1*
X11908Y7156D1*
X11899Y7165D1*
X11889Y7170D1*
X11870D1*
X11958D2*
X12011D1*
X11982Y7132D1*
X11997D1*
X12006Y7127D1*
X12011Y7122D1*
X12016Y7108D1*
Y7098D1*
X12011Y7084D1*
X12001Y7074D1*
X11987Y7070D1*
X11973D1*
X11958Y7074D1*
X11954Y7079D1*
X11949Y7089D1*
M02*
